0 FILE 人形-明绿-黑-灰.io
0 Untitled Model
0 Name:  人形-明绿-黑-灰
0 Author:  
0 CustomBrick
0 FlexibleBrickControlPointUnitLength -1
0 FlexibleBrickLockedControlPoint 
1 232 37.125000 105.999500 -87.125080 0.000000 0.000000 1.000000 0.000000 1.000000 0.000000 -1.000000 0.000000 0.000000 64179.dat
1 4 117.125000 105.999600 -107.125000 -1.000000 0.000000 0.000000 0.000000 1.000000 0.000000 0.000000 0.000000 -1.000000 32054.dat
1 4 117.125000 105.999500 -67.125040 -1.000000 0.000000 0.000000 0.000000 1.000000 0.000000 0.000000 0.000000 -1.000000 32054.dat
1 4 -42.875000 105.999500 -107.125100 1.000000 0.000000 0.000000 0.000000 1.000000 0.000000 0.000000 0.000000 1.000000 32054.dat
1 0 37.125000 105.999700 -27.125050 0.000000 0.000000 1.000000 -1.000000 0.000000 0.000000 0.000000 -1.000000 0.000000 32525.dat
1 4 137.125000 105.999600 -7.124650 0.000000 0.000000 0.999999 0.000000 1.000000 0.000000 -0.999999 0.000000 0.000000 32054.dat
1 4 -62.874860 105.999600 -7.124940 0.000000 0.000000 1.000000 0.000000 1.000000 0.000000 -1.000000 0.000000 0.000000 32054.dat
1 4 77.125000 105.999700 -27.125050 0.000000 0.000000 1.000000 0.000000 1.000000 0.000000 -1.000000 0.000000 0.000000 32054.dat
1 4 -2.875010 105.999500 -27.125080 0.000000 0.000000 1.000000 0.000000 1.000000 0.000000 -1.000000 0.000000 0.000000 32054.dat
1 71 37.125020 85.999500 -147.125100 1.000000 0.000000 0.000000 0.000000 1.000000 0.000000 0.000000 0.000000 1.000000 4519.dat
1 4 77.125020 85.999500 -147.125100 0.000000 0.000000 1.000000 1.000000 -0.000001 0.000000 0.000000 1.000000 0.000000 32013.dat
1 4 -2.874990 85.999500 -147.125100 0.000000 0.000000 -1.000000 1.000000 0.000000 0.000000 0.000001 -1.000000 0.000000 32013.dat
1 0 17.125010 95.999500 -127.125100 0.000000 0.000000 1.000000 1.000000 0.000000 0.000000 0.000000 1.000000 0.000000 2780.dat
1 71 37.125010 85.999500 -147.125100 1.000000 0.000000 0.000000 0.000000 0.000000 -1.000000 0.000000 1.000000 0.000000 63869.dat
1 0 57.125000 95.999500 -127.125100 0.000000 0.000000 1.000000 1.000000 0.000000 0.000000 0.000000 1.000000 0.000000 2780.dat
1 1 97.124980 95.999500 -47.125060 0.000000 0.000000 1.000000 -1.000000 0.000000 0.000000 0.000000 -1.000000 0.000000 43093.dat
1 0 97.124980 85.999500 -47.125080 1.000000 0.000000 0.000000 0.000000 0.000000 1.000000 0.000000 -1.000000 0.000000 32039.dat
1 1 -22.875020 95.999500 -47.125110 0.000000 0.000000 1.000000 -1.000000 0.000000 0.000000 0.000000 -1.000000 0.000000 43093.dat
1 0 -22.875020 85.999500 -47.125110 1.000000 0.000000 0.000000 0.000000 0.000000 1.000000 0.000000 -1.000000 0.000000 32039.dat
1 100167 107.125000 65.999520 -47.125080 1.000000 0.000000 0.000000 0.000000 1.000000 0.000000 0.000000 0.000000 1.000000 32062.dat
1 100167 -32.875020 65.999520 -47.125120 1.000000 0.000000 0.000000 0.000000 1.000000 0.000000 0.000000 0.000000 1.000000 32062.dat
1 232 -82.874950 -153.999800 -127.125200 0.000000 -1.000000 0.000000 0.000000 0.000000 -1.000000 1.000000 0.000000 0.000000 32009.dat
1 1 -72.874910 -154.000100 -47.125120 -1.000000 0.000000 0.000000 0.000000 1.000000 0.000000 0.000000 0.000000 -1.000000 43093.dat
1 232 157.125000 -154.000000 -127.125100 0.000000 -1.000000 0.000000 0.000000 0.000000 -1.000000 1.000000 0.000000 0.000000 32009.dat
1 1 147.124900 -154.000000 -47.125100 1.000000 0.000000 0.000000 0.000000 1.000000 0.000000 0.000000 0.000000 1.000000 43093.dat
1 0 -82.875010 145.999600 -67.124940 0.000000 -1.000000 0.000000 -1.000000 0.000000 0.000000 0.000000 0.000000 -1.000000 32525.dat
1 100167 -122.875000 145.999600 32.875250 1.000000 0.000000 0.000000 0.000000 1.000000 0.000000 0.000000 0.000000 1.000000 15462.dat
1 0 -112.874500 145.999600 32.876250 0.000000 0.000000 -1.000000 0.000000 1.000000 0.000000 1.000000 0.000000 0.000000 57519.dat
1 115 -97.874430 145.999600 32.876250 0.000000 0.000000 1.000000 0.000000 1.000000 0.000000 -1.000000 0.000000 0.000000 32123a.dat
1 115 -127.874600 145.999600 32.876250 0.000000 0.000000 -1.000000 0.000000 1.000000 0.000000 1.000000 0.000000 0.000000 32123a.dat
1 71 -68.875010 145.999700 -167.124800 1.000000 0.000000 0.000000 0.000000 1.000000 0.000000 0.000000 0.000000 1.000000 60485.dat
1 0 -112.874400 145.999700 -167.125000 0.000000 0.000000 -1.000000 0.000000 1.000000 0.000000 1.000000 0.000000 0.000000 57519.dat
1 115 -97.874370 145.999700 -167.125000 0.000000 0.000000 1.000000 0.000000 1.000000 0.000000 -1.000000 0.000000 0.000000 32123a.dat
1 115 -127.874400 145.999700 -167.125000 0.000000 0.000000 -1.000000 0.000000 1.000000 0.000000 1.000000 0.000000 0.000000 32123a.dat
1 0 -72.874980 145.999600 -127.125100 -1.000000 0.000000 0.000000 0.000000 1.000000 0.000000 0.000000 0.000000 -1.000000 2780.dat
1 1 -72.875020 145.999600 -7.124910 1.000004 0.000000 0.000001 0.000000 -1.000000 0.000000 0.000001 0.000000 -1.000004 43093.dat
1 71 -62.875020 125.999600 -7.124910 1.000004 0.000000 0.000000 0.000000 -1.000000 0.000000 0.000000 0.000000 -1.000004 42003.dat
1 0 -52.874980 125.999600 -127.125100 1.000000 0.000000 0.000001 0.000000 1.000000 0.000000 -0.000001 0.000000 1.000000 2780.dat
1 0 -52.874980 165.999600 -127.125100 -1.000000 0.000000 0.000000 0.000000 1.000000 0.000000 0.000000 0.000000 -1.000000 2780.dat
1 0 -142.875000 145.999700 -67.124940 0.000000 1.000000 0.000000 1.000000 0.000000 0.000000 0.000000 0.000000 -1.000000 32525.dat
1 15 -22.874950 145.999600 -137.125100 -1.000000 -0.000001 0.000001 0.000001 -1.000000 -0.000001 0.000001 -0.000001 1.000000 99455.dat
1 0 17.125050 145.999600 -167.124900 0.000000 1.000000 0.000000 -1.000000 0.000000 0.000000 0.000000 0.000000 1.000000 60484.dat
1 0 7.125050 165.999600 -127.125100 -1.000000 0.000000 0.000000 0.000000 1.000000 0.000000 0.000000 0.000000 -1.000000 2780.dat
1 0 7.125050 125.999600 -127.125100 -1.000000 0.000000 0.000000 0.000000 1.000000 0.000000 0.000000 0.000000 -1.000000 2780.dat
1 0 157.125000 145.999700 -67.124860 0.000000 1.000003 0.000000 1.000000 0.000000 0.000000 0.000000 0.000000 -1.000003 32525.dat
1 0 147.125000 145.999700 -127.125000 -1.000000 0.000000 0.000000 0.000000 1.000000 0.000000 0.000000 0.000000 -1.000000 2780.dat
1 0 127.125000 165.999600 -127.125000 -1.000000 0.000000 0.000000 0.000000 1.000000 0.000000 0.000000 0.000000 -1.000000 2780.dat
1 0 127.125000 125.999700 -127.125000 1.000000 0.000000 -0.000001 0.000000 1.000000 0.000000 0.000001 0.000000 1.000000 2780.dat
1 71 137.125100 125.999700 -7.124660 0.999999 0.000000 0.000000 0.000000 -1.000000 0.000000 0.000000 0.000000 -0.999999 42003.dat
1 1 147.125000 145.999700 -7.124660 -1.000000 0.000000 0.000001 0.000000 -1.000000 0.000000 0.000001 0.000000 1.000000 43093.dat
1 71 143.125000 145.999700 -167.124800 1.000003 0.000000 0.000000 0.000000 1.000000 0.000000 0.000000 0.000000 1.000003 60485.dat
1 0 187.124400 145.999700 -167.125000 0.000000 0.000000 1.000002 0.000000 1.000000 0.000000 -1.000002 0.000000 0.000000 57519.dat
1 115 172.124400 145.999700 -167.125000 0.000000 0.000000 -1.000002 0.000000 1.000000 0.000000 1.000002 0.000000 0.000000 32123a.dat
1 115 202.124400 145.999700 -167.125000 0.000000 0.000000 1.000002 0.000000 1.000000 0.000000 -1.000002 0.000000 0.000000 32123a.dat
1 100167 197.125000 145.999700 32.875380 -1.000000 0.000000 0.000000 0.000000 1.000000 0.000000 0.000000 0.000000 -1.000000 15462.dat
1 0 187.124500 145.999600 32.876480 0.000000 0.000000 1.000003 0.000000 1.000000 0.000000 -1.000003 0.000000 0.000000 57519.dat
1 115 172.124500 145.999600 32.876480 0.000000 0.000000 -1.000003 0.000000 1.000000 0.000000 1.000003 0.000000 0.000000 32123a.dat
1 115 202.124500 145.999600 32.876480 0.000000 0.000000 1.000003 0.000000 1.000000 0.000000 -1.000003 0.000000 0.000000 32123a.dat
1 0 217.125000 145.999700 -67.124860 0.000000 -1.000003 0.000000 -1.000000 0.000000 0.000000 0.000000 0.000000 -1.000003 32525.dat
1 15 97.124950 145.999700 -137.125000 -1.000000 0.000001 -0.000001 -0.000001 -1.000000 -0.000001 -0.000001 -0.000001 1.000000 99455.dat
1 0 57.125000 145.999600 -167.124900 0.000000 -1.000000 0.000000 1.000000 0.000000 0.000000 0.000000 0.000000 1.000000 60484.dat
1 0 67.125000 125.999600 -127.125000 -1.000000 0.000000 0.000000 0.000000 1.000000 0.000000 0.000000 0.000000 -1.000000 2780.dat
1 0 67.124900 165.999600 -127.125000 -1.000000 0.000000 0.000000 0.000000 1.000000 0.000000 0.000000 0.000000 -1.000000 2780.dat
1 0 -32.874950 105.999800 -207.125100 1.000003 0.000000 0.000000 0.000000 1.000003 0.000000 0.000000 0.000000 1.000000 4459.dat
1 0 -32.874980 65.999690 -167.125100 1.000003 0.000000 0.000000 0.000000 1.000003 0.000000 0.000000 0.000000 1.000000 4459.dat
1 1 -32.874950 145.999900 -207.125100 -1.000003 0.000000 0.000000 0.000000 1.000003 0.000000 0.000000 0.000000 -1.000000 43093.dat
1 232 -42.875030 65.999480 -207.125100 0.000000 1.000000 0.000000 1.000000 0.000000 0.000000 0.000000 0.000000 -1.000000 32009.dat
1 0 107.125100 65.999800 -167.125100 1.000000 0.000000 0.000000 0.000000 1.000000 0.000000 0.000000 0.000000 1.000000 4459.dat
1 0 107.125100 105.999800 -207.125100 1.000000 0.000000 0.000000 0.000000 1.000000 0.000000 0.000000 0.000000 1.000000 4459.dat
1 232 117.125100 65.999800 -207.125100 0.000000 1.000000 0.000000 1.000000 0.000000 0.000000 0.000000 0.000000 -1.000000 32009.dat
1 1 107.125100 145.999800 -207.125100 1.000000 0.000000 0.000000 0.000000 1.000000 0.000000 0.000000 0.000000 1.000000 43093.dat
1 1 77.125030 65.999800 -147.125100 0.000000 -1.000000 0.000000 1.000000 0.000000 0.000000 0.000000 0.000000 1.000000 6558.dat
1 1 -2.874970 65.999800 -147.125100 0.000000 -1.000000 0.000000 1.000000 0.000000 0.000000 0.000000 0.000000 1.000000 6558.dat
1 0 187.125100 191.707600 -168.802000 1.000003 0.000000 0.000000 0.000000 -1.000000 0.000000 0.000000 0.000000 -1.000002 57518.dat
1 0 187.125100 191.707600 -138.801900 1.000003 0.000000 0.000000 0.000000 -1.000000 0.000000 0.000000 0.000000 -1.000002 57518.dat
1 0 187.125100 191.707600 -108.802000 1.000003 0.000000 0.000000 0.000000 -1.000000 0.000000 0.000000 0.000000 -1.000002 57518.dat
1 0 187.125100 191.707600 -78.808130 1.000003 0.000000 0.000000 0.000000 -1.000000 0.000000 0.000000 0.000000 -1.000002 57518.dat
1 0 187.125100 191.707600 -48.808160 1.000003 0.000000 0.000000 0.000000 -1.000000 0.000000 0.000000 0.000000 -1.000002 57518.dat
1 0 187.125100 191.707500 -18.812460 1.000003 0.000000 0.000000 0.000000 -1.000000 0.000000 0.000000 0.000000 -1.000002 57518.dat
1 0 187.125100 191.707500 11.187630 1.000003 0.000000 0.000000 0.000000 -1.000000 0.000000 0.000000 0.000000 -1.000002 57518.dat
1 0 187.125100 191.707500 41.187440 1.000003 0.000001 0.000000 0.000001 -0.906308 0.422619 0.000001 -0.422620 -0.906310 57518.dat
1 0 187.125300 179.029200 68.376720 1.000003 0.000001 -0.000004 0.000004 -0.422618 0.906308 -0.000001 -0.906310 -0.422619 57518.dat
1 0 187.125300 151.847000 81.051560 1.000003 0.000000 -0.000004 0.000004 0.087155 0.996195 0.000000 -0.996197 0.087155 57518.dat
1 0 187.125500 121.960900 78.436760 1.000003 -0.000004 -0.000003 0.000005 0.728969 0.684548 0.000000 -0.684549 0.728971 57518.dat
1 0 187.125300 101.425100 56.567790 1.000003 -0.000005 -0.000001 0.000005 0.996778 0.080200 0.000000 -0.080199 0.996781 57518.dat
1 0 187.125300 99.018600 26.663770 1.000003 -0.000005 0.000000 0.000005 0.999999 -0.000015 0.000000 0.000015 1.000003 57518.dat
1 0 187.125300 99.019390 -3.336280 1.000003 -0.000005 0.000000 0.000005 1.000000 -0.000015 0.000000 0.000015 1.000003 57518.dat
1 0 187.125200 99.019680 -33.336440 1.000003 -0.000005 0.000000 0.000005 1.000000 -0.000015 0.000000 0.000015 1.000003 57518.dat
1 0 187.125300 99.020210 -63.336480 1.000003 -0.000005 0.000000 0.000005 1.000000 -0.000015 0.000000 0.000015 1.000003 57518.dat
1 0 188.254500 109.184100 -206.767900 1.000003 0.000000 0.000007 0.000007 0.358367 -0.933581 -0.000002 0.933583 0.358368 57518.dat
1 0 188.254300 137.191400 -217.519000 1.000003 0.000003 0.000007 0.000007 -0.139174 -0.990268 -0.000002 0.990270 -0.139174 57518.dat
1 0 188.254100 166.899500 -213.344000 1.000003 0.000006 0.000005 0.000008 -0.615661 -0.788011 -0.000002 0.788012 -0.615664 57518.dat
1 0 188.254000 190.539700 -194.874200 1.000003 0.000000 -0.000001 0.000000 -1.000000 0.000000 -0.000001 0.000000 -1.000002 57518.dat
1 0 187.125300 99.020700 -93.336570 1.000003 -0.000005 0.000000 0.000005 1.000000 -0.000015 0.000000 0.000015 1.000003 57518.dat
1 0 187.125300 99.021000 -123.336600 1.000003 -0.000005 0.000000 0.000005 1.000000 -0.000015 0.000000 0.000015 1.000003 57518.dat
1 0 188.254600 95.657790 -179.990200 1.000003 -0.000004 0.000002 0.000005 0.892586 -0.450877 0.000000 0.450878 0.892589 57518.dat
1 0 188.254600 95.390700 -149.991300 1.000003 -0.000005 0.000000 0.000005 0.999960 -0.008902 0.000000 0.008902 0.999963 57518.dat
1 0 -112.875000 191.707600 -168.802000 1.000000 0.000000 0.000000 0.000000 -1.000000 0.000000 0.000000 0.000000 -1.000000 57518.dat
1 0 -112.875000 191.707600 -138.802000 1.000000 0.000000 0.000000 0.000000 -1.000000 0.000000 0.000000 0.000000 -1.000000 57518.dat
1 0 -112.875000 191.707600 -108.802000 1.000000 0.000000 0.000000 0.000000 -1.000000 0.000000 0.000000 0.000000 -1.000000 57518.dat
1 0 -112.875000 191.707600 -78.808170 1.000000 0.000000 0.000000 0.000000 -1.000000 0.000000 0.000000 0.000000 -1.000000 57518.dat
1 0 -112.875000 191.707600 -48.808200 1.000000 0.000000 0.000000 0.000000 -1.000000 0.000000 0.000000 0.000000 -1.000000 57518.dat
1 0 -112.875000 191.707500 -18.812490 1.000000 0.000000 0.000000 0.000000 -1.000000 0.000000 0.000000 0.000000 -1.000000 57518.dat
1 0 -112.875000 191.707400 11.187610 1.000000 0.000000 0.000000 0.000000 -1.000000 0.000000 0.000000 0.000000 -1.000000 57518.dat
1 0 -112.875000 191.707500 41.187360 1.000000 -0.000001 0.000000 -0.000001 -0.906308 0.422618 0.000000 -0.422618 -0.906308 57518.dat
1 0 -112.875200 179.029200 68.376660 1.000000 -0.000001 0.000004 -0.000004 -0.422619 0.906308 0.000001 -0.906308 -0.422619 57518.dat
1 0 -112.875200 151.847000 81.051470 1.000000 0.000000 0.000004 -0.000004 0.087155 0.996195 0.000000 -0.996195 0.087155 57518.dat
1 0 -112.875400 121.960800 78.436660 1.000000 0.000004 0.000003 -0.000005 0.728970 0.684546 0.000000 -0.684546 0.728970 57518.dat
1 0 -112.875200 101.425000 56.567660 1.000000 0.000005 0.000001 -0.000005 0.996779 0.080200 0.000000 -0.080200 0.996779 57518.dat
1 0 -112.875200 99.018520 26.663620 1.000000 0.000005 0.000000 -0.000005 1.000000 -0.000015 0.000000 0.000015 1.000000 57518.dat
1 0 -112.875200 99.019320 -3.336400 1.000000 0.000005 0.000000 -0.000005 1.000000 -0.000015 0.000000 0.000015 1.000000 57518.dat
1 0 -112.875100 99.019680 -33.336570 1.000000 0.000005 0.000000 -0.000005 1.000000 -0.000015 0.000000 0.000015 1.000000 57518.dat
1 0 -112.875200 99.020190 -63.336600 1.000000 0.000005 0.000000 -0.000005 1.000000 -0.000015 0.000000 0.000015 1.000000 57518.dat
1 0 -114.004400 109.184000 -206.767900 1.000000 0.000000 -0.000007 -0.000007 0.358368 -0.933581 0.000003 0.933581 0.358368 57518.dat
1 0 -114.004200 137.191400 -217.519100 1.000000 -0.000003 -0.000007 -0.000007 -0.139175 -0.990268 0.000002 0.990268 -0.139175 57518.dat
1 0 -114.004000 166.899500 -213.344000 1.000000 -0.000006 -0.000005 -0.000008 -0.615663 -0.788010 0.000002 0.788010 -0.615663 57518.dat
1 0 -114.003900 190.539700 -194.874200 1.000000 0.000000 0.000001 0.000000 -1.000000 0.000000 0.000001 0.000000 -1.000000 57518.dat
1 0 -112.875200 99.020610 -93.336680 1.000000 0.000005 0.000000 -0.000005 1.000000 -0.000015 0.000000 0.000015 1.000000 57518.dat
1 0 -112.875200 99.020980 -123.336700 1.000000 0.000005 0.000000 -0.000005 1.000000 -0.000015 0.000000 0.000015 1.000000 57518.dat
1 0 -114.004500 95.657760 -179.990300 1.000000 0.000004 -0.000002 -0.000005 0.892587 -0.450876 0.000000 0.450876 0.892587 57518.dat
1 0 -114.004500 95.390640 -149.991500 1.000000 0.000005 0.000000 -0.000005 0.999960 -0.008902 0.000000 0.008902 0.999960 57518.dat
1 0 37.125030 -53.999940 -147.124900 0.999999 0.000000 0.000000 0.000000 0.000000 -0.999999 0.000000 1.000000 0.000000 18938.dat
1 71 37.125080 -53.999920 -147.125200 0.000000 0.000000 -0.999999 -0.999999 0.000000 0.000000 0.000000 1.000000 0.000000 18939.dat
1 71 37.125080 -13.999950 -127.125200 0.000000 0.000000 0.999999 -0.999999 0.000000 0.000000 0.000000 -1.000000 0.000000 4519.dat
1 71 37.125080 -93.999870 -127.125200 0.000000 0.000000 0.999999 -0.999999 0.000000 0.000000 0.000000 -1.000000 0.000000 4519.dat
1 232 37.125100 -113.999900 -127.125200 0.000000 -0.999999 0.000000 0.000000 0.000000 -0.999999 1.000000 0.000000 0.000000 48989.dat
1 232 37.125060 6.000040 -127.125200 0.000000 -0.999999 0.000000 0.000000 0.000000 -0.999999 1.000000 0.000000 0.000000 48989.dat
1 0 57.125070 -113.999900 -117.125200 0.000000 0.000000 0.999999 0.000000 0.999999 0.000001 -1.000000 0.000000 0.000001 2780.dat
1 0 17.125110 -113.999900 -117.125200 0.000000 -0.000001 0.999999 0.000000 0.999999 0.000001 -1.000000 0.000000 0.000001 2780.dat
1 0 57.125030 6.000100 -117.125200 0.000000 -0.000001 0.999999 0.000000 0.999999 0.000001 -1.000000 0.000000 0.000001 2780.dat
1 0 17.125060 6.000040 -117.125200 0.000000 -0.000001 0.999999 0.000000 0.999999 0.000001 -1.000000 0.000000 0.000000 2780.dat
1 0 37.125070 -113.999900 -107.125200 0.000001 0.000000 0.999999 -0.999999 0.000000 0.000000 0.000000 -1.000000 0.000000 32525.dat
1 0 137.124900 -113.999900 -117.125000 0.000001 0.000000 0.999999 0.000000 0.999999 0.000000 -1.000000 0.000000 0.000001 2780.dat
1 0 -62.874890 -113.999900 -117.125000 0.000000 -0.000001 0.999999 0.000000 0.999999 0.000001 -1.000000 0.000000 0.000000 2780.dat
1 0 37.125400 5.999940 -107.125200 0.000001 0.000000 0.999999 -0.999999 0.000000 0.000000 0.000000 -1.000000 0.000000 32525.dat
1 0 137.125500 6.000020 -117.125000 0.000001 0.000000 1.000002 0.000000 1.000002 0.000000 -1.000000 0.000000 0.000001 2780.dat
1 0 -62.874890 6.000000 -117.125000 0.000000 -0.000001 1.000002 0.000000 1.000002 0.000001 -1.000000 0.000000 0.000000 2780.dat
1 321 -22.874930 -53.999940 -147.125000 0.000000 0.999999 0.000000 0.000000 0.000000 -0.999999 -1.000000 0.000000 0.000000 42531.dat
1 321 97.124980 -53.999940 -147.125000 0.000000 -0.999999 0.000000 0.000000 0.000000 0.999999 -1.000000 0.000000 0.000000 42531.dat
1 0 -22.874930 35.999950 -147.125000 0.000000 0.000000 0.999999 0.999999 0.000000 0.000000 0.000000 1.000000 0.000000 2780.dat
1 0 97.124970 35.999950 -147.125000 0.000000 0.000000 0.999999 0.999999 0.000000 0.000000 0.000000 1.000000 0.000000 2780.dat
1 0 97.125010 -143.999800 -147.125000 0.000000 0.000000 -0.999999 -0.999999 0.000000 0.000000 0.000000 1.000000 0.000000 2780.dat
1 0 -22.874890 -143.999800 -147.125000 0.000000 0.000000 -0.999999 -0.999999 0.000000 0.000000 0.000000 1.000000 0.000000 2780.dat
1 0 37.125060 -153.999800 -147.125000 0.000000 0.000000 -0.999999 0.000000 0.999999 0.000000 1.000000 0.000000 0.000000 32524.dat
1 0 37.125010 45.999920 -147.125000 0.000000 0.000000 -0.999999 0.000000 0.999999 0.000000 1.000000 0.000000 0.000000 32524.dat
1 321 37.125010 -174.000000 -87.125240 0.000000 0.000000 -1.000000 -1.000000 0.000000 0.000000 0.000000 1.000000 0.000000 24119.dat
1 0 -32.874990 -154.000000 -127.125300 1.000000 0.000000 0.000000 0.000000 0.000000 1.000000 0.000000 -1.000000 0.000000 2780.dat
1 0 -32.874960 -173.999800 -87.125220 1.000000 0.000000 0.000000 0.000000 0.000000 1.000000 0.000000 -1.000000 0.000000 2780.dat
1 0 107.125000 -154.000000 -127.125200 1.000000 0.000000 0.000000 0.000000 0.000000 1.000000 0.000000 -1.000000 0.000000 2780.dat
1 0 107.125000 -174.000000 -87.125230 1.000000 0.000000 0.000000 0.000000 0.000000 1.000000 0.000000 -1.000000 0.000000 2780.dat
1 0 37.125020 -134.000000 -127.125200 0.000000 0.000000 1.000000 0.000000 1.000000 0.000000 -1.000000 0.000000 0.000000 32525.dat
1 0 77.125020 -144.000000 -127.125200 0.000000 -1.000000 0.000000 1.000000 0.000000 0.000000 0.000000 0.000000 1.000000 2780.dat
1 0 -2.874980 -144.000000 -127.125200 0.000000 -1.000000 0.000000 1.000000 0.000000 0.000000 0.000000 0.000000 1.000000 2780.dat
1 0 137.114500 -143.999900 -127.125100 0.000000 -0.999999 0.000000 0.999999 0.000000 0.000000 0.000000 0.000000 1.000000 2780.dat
1 0 -62.875190 -143.999800 -127.125200 0.000000 -1.000000 0.000000 1.000000 0.000000 0.000000 0.000000 0.000000 1.000000 2780.dat
1 15 37.125100 -104.000100 -47.125120 -1.000000 0.000001 -0.000001 -0.000001 0.000000 1.000000 0.000001 1.000000 0.000000 99455.dat
1 0 7.125120 -94.000190 -27.125110 1.000000 0.000000 0.000000 0.000000 1.000000 0.000000 0.000000 0.000000 1.000000 2780.dat
1 0 7.125060 -94.000190 -67.125080 1.000000 0.000000 0.000000 0.000000 1.000000 0.000000 0.000000 0.000000 1.000000 2780.dat
1 0 -2.874950 -134.000200 -47.125120 0.000000 -1.000000 0.000000 0.000001 0.000000 1.000000 -1.000000 0.000000 0.000001 60484.dat
1 0 77.125110 -134.000100 -47.125140 0.000000 -1.000000 0.000000 0.000001 0.000000 1.000000 -1.000000 0.000000 0.000001 60484.dat
1 0 67.125130 -94.000190 -27.125110 1.000000 0.000000 0.000000 0.000000 1.000000 0.000000 0.000000 0.000000 1.000000 2780.dat
1 0 67.125070 -94.000100 -67.125140 1.000000 0.000000 0.000000 0.000000 1.000000 0.000000 0.000000 0.000000 1.000000 2780.dat
1 100167 37.125130 -104.000100 -47.125140 0.000000 0.000001 -1.000000 -1.000000 0.000000 0.000000 0.000000 1.000000 0.000001 32062.dat
1 19 37.125130 -103.940100 -47.125140 -1.000000 0.000000 0.000000 0.000000 0.000000 -1.000000 0.000000 -1.000000 0.000000 6589.dat
1 0 17.415040 -107.400400 -47.125120 0.000000 0.000000 -1.000000 0.000000 1.000000 0.000000 1.000000 0.000000 0.000000 35185.dat
1 0 37.125120 -134.000100 -47.125120 -1.000000 0.000000 0.000000 0.000000 1.000000 0.000000 0.000000 0.000000 -1.000000 44294.dat
1 15 -32.874960 -134.003000 -47.125120 0.000000 0.000000 -1.000000 0.000000 1.000000 0.000000 1.000000 0.000000 0.000000 59443.dat
1 15 107.125100 -134.003000 -47.125140 0.000000 0.000000 -1.000000 0.000000 1.000000 0.000000 1.000000 0.000000 0.000000 59443.dat
1 1 77.125080 -34.000190 -7.125060 -1.000000 0.000000 0.000000 0.000000 1.000000 0.000000 0.000000 0.000000 -1.000000 32556.dat
1 1 -2.874950 -34.000100 -7.125050 1.000001 0.000000 0.000000 0.000000 1.000000 0.000000 0.000000 0.000000 1.000001 32556.dat
1 1 77.125080 -74.000200 -7.125060 -1.000000 0.000000 0.000000 0.000000 1.000000 0.000000 0.000000 0.000000 -1.000000 32556.dat
1 1 -2.874890 -74.000100 -7.125110 1.000000 0.000000 0.000000 0.000000 1.000000 0.000000 0.000000 0.000000 1.000000 32556.dat
1 71 37.125070 -34.000190 -7.125060 1.000000 0.000000 0.000000 0.000000 0.000000 1.000000 0.000000 -1.000000 0.000000 64178.dat
1 0 -12.874930 45.999840 -7.125060 -1.000000 0.000000 0.000000 0.000000 -1.000000 0.000000 0.000000 0.000000 1.000000 4459.dat
1 0 -12.874930 5.999800 -7.125060 -1.000000 0.000000 0.000000 0.000000 -1.000000 0.000000 0.000000 0.000000 1.000000 4459.dat
1 0 87.124950 45.999680 -7.124560 -1.000000 0.000000 0.000000 0.000000 -1.000000 0.000000 0.000000 0.000000 1.000000 4459.dat
1 0 87.124950 5.999700 -7.124560 -1.000000 0.000000 0.000000 0.000000 -1.000000 0.000000 0.000000 0.000000 1.000000 4459.dat
1 0 97.125080 -94.000190 -7.125090 0.000000 -1.000000 0.000000 0.000000 0.000000 1.000000 -1.000000 0.000000 0.000000 32524.dat
1 0 -22.874890 -94.000100 -7.125110 0.000000 -1.000000 0.000000 0.000000 0.000000 1.000000 -1.000000 0.000000 0.000000 32524.dat
1 232 97.124950 -14.000300 -7.124560 0.000000 1.000000 0.000000 0.000000 0.000000 1.000000 1.000000 0.000000 0.000000 32526.dat
1 232 -22.874990 -14.000300 -7.125060 0.000000 1.000000 0.000000 0.000000 0.000000 1.000000 1.000000 0.000000 0.000000 32526.dat
1 0 107.125100 -94.000190 -7.125090 1.000000 0.000000 0.000000 0.000000 1.000000 0.000000 0.000000 0.000000 1.000000 2780.dat
1 0 107.125100 -154.000200 -7.125090 1.000000 0.000000 0.000000 0.000000 1.000000 0.000000 0.000000 0.000000 1.000000 2780.dat
1 0 -32.874900 -154.000100 -7.125110 1.000000 0.000000 0.000000 0.000000 1.000000 0.000000 0.000000 0.000000 1.000000 2780.dat
1 0 -32.874900 -94.000100 -7.125110 1.000000 0.000000 0.000000 0.000000 1.000000 0.000000 0.000000 0.000000 1.000000 2780.dat
1 232 117.125100 -94.000190 -7.125180 0.000000 1.000000 0.000000 0.000000 0.000000 -1.000000 -1.000000 0.000000 0.000000 32526.dat
1 232 -42.874890 -94.000100 -7.125110 0.000000 1.000000 0.000000 0.000000 0.000000 -1.000000 -1.000000 0.000000 0.000000 32526.dat
1 1 -42.874900 -174.000100 -47.125100 1.000000 0.000000 0.000000 0.000000 1.000000 0.000000 0.000000 0.000000 1.000000 32556.dat
1 1 -42.874900 -174.000100 -7.125110 1.000000 0.000000 0.000000 0.000000 1.000000 0.000000 0.000000 0.000000 1.000000 32556.dat
1 1 117.125100 -174.000200 -7.125150 -1.000000 0.000000 0.000000 0.000000 1.000000 0.000000 0.000000 0.000000 -1.000000 32556.dat
1 1 117.125100 -174.000200 -47.125160 -1.000000 0.000000 0.000000 0.000000 1.000000 0.000000 0.000000 0.000000 -1.000000 32556.dat
1 232 137.125100 -94.000190 -47.125120 0.000000 -1.000000 0.000000 0.000000 0.000000 -1.000000 1.000000 0.000000 0.000000 32526.dat
1 232 -62.874920 -94.000100 -47.125100 0.000000 -1.000000 0.000000 0.000000 0.000000 -1.000000 1.000000 0.000000 0.000000 32526.dat
1 4 -2.874950 25.999830 12.874940 0.000000 0.000000 1.000000 0.000000 1.000000 0.000000 -1.000000 0.000000 0.000000 32054.dat
1 4 77.125060 25.999830 12.874930 0.000000 0.000000 1.000000 0.000000 1.000000 0.000000 -1.000000 0.000000 0.000000 32054.dat
1 1 117.125000 -153.999900 12.874780 -1.000000 0.000000 0.000000 0.000000 1.000000 0.000000 0.000000 0.000000 -1.000000 6558.dat
1 1 -42.874960 -153.999900 12.874770 1.000000 0.000000 0.000000 0.000000 1.000000 0.000000 0.000000 0.000000 1.000000 6558.dat
1 71 117.125000 65.999680 -7.124550 -1.000000 0.000000 0.000000 0.000000 -1.000000 0.000000 0.000000 0.000000 1.000000 55615.dat
1 71 -42.874990 65.999690 -7.125060 -1.000000 0.000000 0.000000 0.000000 -1.000000 0.000000 0.000000 0.000000 1.000000 55615.dat
1 1 117.124900 65.999680 -7.124550 1.000000 0.000000 0.000000 0.000000 1.000000 0.000000 0.000000 0.000000 1.000000 6558.dat
1 1 117.125000 65.999680 32.875450 1.000000 0.000000 0.000000 0.000000 1.000000 0.000000 0.000000 0.000000 1.000000 6558.dat
1 1 -42.874990 65.999690 -7.125060 -1.000000 0.000000 0.000000 0.000000 1.000000 0.000000 0.000000 0.000000 -1.000000 6558.dat
1 1 -42.874990 65.999690 32.874940 -1.000000 0.000000 0.000000 0.000000 1.000000 0.000000 0.000000 0.000000 -1.000000 6558.dat
1 321 157.124900 65.999590 -67.125130 1.000000 -0.000001 0.000000 0.000001 1.000000 0.000001 0.000000 -0.000001 1.000000 18944.dat
1 232 137.125000 65.999840 -67.125100 0.000000 -1.000000 0.000000 1.000000 0.000000 0.000000 0.000000 0.000000 1.000000 41239.dat
1 0 147.125000 65.999780 52.874900 -1.000000 0.000000 0.000000 0.000000 -1.000000 0.000000 0.000000 0.000000 1.000000 4459.dat
1 0 147.125000 65.999870 -187.125100 -1.000000 0.000000 0.000000 0.000000 -1.000000 0.000000 0.000000 0.000000 1.000000 4459.dat
1 0 127.125000 65.999850 -127.125100 -1.000000 0.000000 0.000001 0.000000 -1.000000 0.000000 0.000001 0.000000 1.000000 2780.dat
1 0 127.125000 65.999840 -67.125100 -1.000000 0.000000 0.000001 0.000000 -1.000000 0.000000 0.000001 0.000000 1.000000 2780.dat
1 321 -82.874900 65.999480 -67.125100 -1.000000 0.000001 0.000000 0.000001 1.000000 -0.000001 0.000000 -0.000001 -1.000000 18944.dat
1 232 -62.874980 65.999720 -67.125040 0.000000 1.000000 0.000000 -1.000000 0.000000 0.000000 0.000000 0.000000 1.000000 41239.dat
1 0 -72.874980 65.999660 52.874920 -1.000000 0.000000 0.000000 0.000000 -1.000000 0.000000 0.000000 0.000000 1.000000 4459.dat
1 0 -72.875000 65.999750 -187.125100 -1.000000 0.000000 0.000000 0.000000 -1.000000 0.000000 0.000000 0.000000 1.000000 4459.dat
1 0 -52.874980 65.999740 -127.125000 -1.000000 0.000000 -0.000001 0.000000 -1.000000 0.000000 -0.000001 0.000000 1.000000 2780.dat
1 0 -52.874980 65.999720 -67.125040 -1.000000 0.000000 -0.000001 0.000000 -1.000000 0.000000 -0.000001 0.000000 1.000000 2780.dat
1 0 157.125000 -73.999880 -37.125230 0.000000 0.000000 1.000000 0.000000 -1.000000 0.000000 1.000000 0.000000 0.000000 2780.dat
1 0 157.125000 -33.999890 -37.125220 0.000000 0.000000 1.000000 0.000000 -1.000000 0.000000 1.000000 0.000000 0.000000 2780.dat
1 0 147.125000 -93.999880 -47.125240 1.000000 0.000000 0.000000 0.000000 -1.000000 0.000000 0.000000 0.000000 -1.000000 2780.dat
1 321 157.125000 -53.999920 -67.125240 0.000000 -1.000000 0.000000 1.000000 0.000000 0.000000 0.000000 0.000000 1.000000 71709.dat
1 0 157.125000 -73.999880 -97.125230 0.000000 0.000000 1.000000 0.000000 -1.000000 0.000000 1.000000 0.000000 0.000000 2780.dat
1 0 157.125000 -33.999910 -97.125240 0.000000 0.000000 1.000000 0.000000 -1.000000 0.000000 1.000000 0.000000 0.000000 2780.dat
1 462 157.125000 -53.999920 -107.125200 -1.000000 0.000000 0.000000 0.000000 0.000000 1.000000 0.000000 1.000000 0.000000 32316.dat
1 321 -82.875010 -54.000100 -67.125360 0.000000 0.999999 0.000000 -0.999993 0.000000 0.000000 0.000000 0.000000 1.000000 71709.dat
1 462 -82.874920 -54.000140 -107.125500 1.000002 0.000000 0.000000 0.000000 0.000000 -1.000002 0.000000 1.000000 0.000000 32316.dat
1 0 -82.874950 -74.000110 -97.125350 0.000000 0.000000 -1.000000 0.000000 1.000001 0.000000 1.000000 0.000000 0.000000 2780.dat
1 0 -82.874970 -74.000110 -37.125260 0.000000 0.000000 -1.000000 0.000000 1.000001 0.000000 1.000000 0.000000 0.000000 2780.dat
1 0 -82.874980 -33.999910 -97.125330 0.000000 0.000000 -1.000000 0.000000 1.000001 0.000000 1.000000 0.000000 0.000000 2780.dat
1 0 -82.874970 -33.999970 -37.125230 0.000000 0.000000 -1.000000 0.000000 1.000001 0.000000 1.000000 0.000000 0.000000 2780.dat
1 0 -72.875010 -93.999790 -47.125350 1.000000 0.000000 0.000000 0.000000 1.000000 0.000000 0.000000 0.000000 1.000000 2780.dat
1 0 227.693400 -102.120400 -63.217620 -0.000007 1.000000 0.000076 -0.804496 0.000039 -0.593956 -0.593956 -0.000065 0.804496 2391.dat
1 0 207.685700 -42.743530 -143.679200 0.000004 1.000000 0.000077 -0.804822 0.000048 -0.593516 -0.593516 -0.000060 0.804822 32271.dat
1 0 217.688800 -66.482680 -111.486400 1.000000 -0.000001 0.000082 -0.000001 0.999967 0.008074 -0.000083 -0.008074 0.999967 2780.dat
1 0 217.691900 -90.225360 -79.294510 1.000000 -0.000001 0.000082 -0.000001 0.999967 0.008074 -0.000083 -0.008074 0.999967 2780.dat
1 15 227.686300 -42.748780 -143.684600 -1.000000 -0.000049 0.000050 0.000011 -0.805028 -0.593237 0.000069 -0.593237 0.805028 95648.dat
1 0 217.687300 -54.613400 -127.583300 1.000000 -0.000001 0.000082 -0.000001 0.999967 0.008074 -0.000083 -0.008074 0.999967 2780.dat
1 100167 217.686800 -42.753700 -143.687700 1.000000 0.000049 0.000050 -0.000011 0.805026 -0.593239 -0.000069 0.593239 0.805026 32062.dat
1 0 227.693400 -110.165300 -69.157190 0.000007 -1.000000 0.000005 0.804497 0.000004 -0.593956 0.593956 0.000009 0.804497 2780.dat
1 0 227.696400 -133.923600 -36.977340 0.000007 -1.000000 0.000005 0.804497 0.000004 -0.593957 0.593957 0.000009 0.804497 2780.dat
1 71 156.695100 -134.000100 -47.125140 1.000000 -0.000001 0.000000 0.000000 1.000000 -0.000001 0.000000 0.000001 1.000000 32073.dat
1 1 197.695000 -113.999900 -47.125800 -1.000004 0.000000 -0.000060 0.000001 1.000000 0.000000 0.000060 0.000000 -1.000000 43093.dat
1 0 187.695100 -134.000200 -47.125150 -0.000060 0.000000 0.999995 0.000000 1.000000 -0.000001 -1.000000 0.000001 -0.000060 32498.dat
1 100167 197.695000 -153.999400 -47.125820 1.000004 0.000032 0.000060 -0.000033 1.000000 0.000000 -0.000060 0.000001 1.000000 32062.dat
1 0 57.125040 65.999780 -157.125100 0.000000 0.000000 -1.000000 0.000000 1.000000 0.000000 1.000000 0.000000 0.000000 2780.dat
1 0 17.125040 65.999780 -157.125100 0.000000 0.000000 -1.000000 0.000000 1.000000 0.000000 1.000000 0.000000 0.000000 2780.dat
1 321 37.125050 65.999780 -167.125100 0.000000 0.000000 -1.000000 -1.000000 0.000000 0.000000 0.000000 1.000000 0.000000 24119.dat
1 72 37.125130 -53.999560 -154.805200 0.999999 0.000000 0.000000 0.000000 0.999999 0.000000 0.000000 0.000000 1.000000 4185.dat
1 72 37.125110 -53.999560 -146.805200 0.999999 0.000000 0.000000 0.000000 0.999999 0.000000 0.000000 0.000000 1.000000 4185.dat
1 15 37.125080 -53.999920 -127.125200 0.000000 -0.999999 0.000000 0.000000 0.000000 -0.999999 1.000000 0.000000 0.000000 32034.dat
1 15 37.125130 -53.999900 -133.305200 0.000000 0.000000 0.999999 0.000000 0.999999 0.000000 -1.000000 0.000000 0.000000 6587.dat
1 15 37.125120 -53.999900 -108.855200 0.999999 0.000000 0.000000 0.000000 0.999999 0.000000 0.000000 0.000000 1.000000 3713.dat
1 0 127.125000 -154.000100 -107.125100 1.000000 0.000000 0.000000 0.000000 1.000000 0.000000 0.000000 0.000000 1.000000 2780.dat
1 15 137.125000 -154.000100 -87.125130 0.000000 1.000000 0.000000 -1.000000 0.000000 0.000000 0.000000 0.000000 1.000000 32523.dat
1 0 147.125000 -154.000100 -67.125130 1.000000 0.000000 0.000000 0.000000 1.000000 0.000000 0.000000 0.000000 1.000000 2780.dat
1 1 137.124900 -154.000000 -87.125110 1.000000 0.000000 0.000000 0.000000 -1.000000 0.000000 0.000000 0.000000 -1.000000 32556.dat
1 15 -62.874960 -153.999800 -87.125220 0.000000 1.000000 0.000000 -1.000000 0.000000 0.000000 0.000000 0.000000 1.000000 32523.dat
1 0 -52.874950 -153.999800 -107.125200 1.000000 0.000000 0.000000 0.000000 1.000000 0.000000 0.000000 0.000000 1.000000 2780.dat
1 1 -62.874960 -153.999800 -87.125220 1.000000 0.000000 0.000000 0.000000 1.000000 0.000000 0.000000 0.000000 1.000000 6558.dat
1 0 -72.874960 -153.999800 -67.125220 1.000000 0.000000 0.000000 0.000000 1.000000 0.000000 0.000000 0.000000 1.000000 2780.dat
1 15 37.125040 -173.999900 12.874740 0.000000 0.000000 -1.000000 0.000000 1.000000 0.000000 1.000000 0.000000 0.000000 6587.dat
1 15 37.125040 -173.999900 -27.125260 0.000000 1.000000 0.000000 1.000000 0.000000 0.000000 0.000000 0.000000 -1.000000 32034.dat
1 71 37.124980 -173.999900 -67.125260 0.000000 0.000000 1.000000 0.000000 1.000000 0.000000 -1.000000 0.000000 0.000000 4519.dat
1 232 37.125020 -173.999900 -27.125260 0.000000 0.000000 1.000000 0.000000 1.000000 0.000000 -1.000000 0.000000 0.000000 64179.dat
1 0 77.125020 -173.999900 -77.125270 0.000000 0.000000 1.000000 0.000000 -1.000000 0.000000 1.000000 0.000000 0.000000 2780.dat
1 0 -2.874990 -173.999900 -77.125260 0.000000 0.000000 1.000000 0.000000 -1.000000 0.000000 1.000000 0.000000 0.000000 2780.dat
1 71 97.125060 -153.999900 12.874720 0.000000 -1.000000 0.000000 -1.000000 0.000000 0.000000 0.000000 0.000000 -1.000000 87082.dat
1 71 -22.874980 -153.999900 12.874760 0.000000 -1.000000 0.000000 -1.000000 0.000000 0.000000 0.000000 0.000000 -1.000000 87082.dat
1 71 97.125030 6.000090 12.874750 0.000000 0.000000 -1.000000 0.000000 1.000000 0.000000 1.000000 0.000000 0.000000 55615.dat
1 0 37.125040 26.000090 12.874730 0.000000 0.000000 1.000000 0.000000 1.000000 0.000000 -1.000000 0.000000 0.000000 2391.dat
1 71 -22.874970 6.000090 12.874710 0.000001 0.000000 1.000000 0.000000 1.000000 0.000000 -1.000000 0.000000 0.000001 55615.dat
1 0 117.125000 -73.999900 12.874770 0.000000 -1.000000 0.000000 0.000000 0.000000 1.000000 -1.000000 0.000000 0.000000 32525.dat
1 0 -42.874970 -73.999900 12.874700 0.000000 -1.000000 0.000000 0.000000 0.000000 1.000000 -1.000000 0.000000 0.000000 32525.dat
1 71 227.693300 -118.210300 -75.096780 1.000000 0.000007 -0.000002 -0.000008 0.804497 -0.593956 -0.000003 0.593956 0.804497 87082.dat
1 321 267.696300 -65.728540 -11.495760 -1.000000 0.000101 -0.000126 0.000007 0.804496 0.593957 0.000162 0.593957 -0.804496 64682.dat
1 0 247.695500 -87.757930 -15.326670 0.000126 -0.000073 -1.000000 -0.593957 0.804496 -0.000133 0.804496 0.593957 0.000059 2780.dat
1 0 247.693500 -103.847900 -27.205810 0.000126 -0.000073 -1.000000 -0.593957 0.804496 -0.000133 0.804496 0.593957 0.000059 2780.dat
1 321 247.696500 -141.966900 -42.918820 1.000000 -0.000126 -0.000010 0.000082 0.593957 0.804497 -0.000096 -0.804497 0.593957 64683.dat
1 321 157.125000 -73.999920 -27.125250 1.000000 0.000000 0.000000 0.000000 0.000000 1.000000 0.000000 -1.000000 0.000000 11954.dat
1 321 -82.874940 -73.999880 -27.125190 -1.000000 0.000000 0.000000 0.000000 0.000000 -1.000000 0.000000 -1.000000 0.000000 11954.dat
1 4 -42.874920 105.999500 -67.125160 1.000000 0.000000 0.000000 0.000000 1.000000 0.000000 0.000000 0.000000 1.000000 32054.dat
0 STEP
1 0 -153.873200 -102.119500 -63.215780 -0.000007 -1.000000 -0.000076 0.804498 0.000039 -0.593956 0.593956 -0.000065 0.804498 2391.dat
1 0 -133.865500 -42.742580 -143.677400 -0.000004 1.000000 -0.000077 -0.804823 -0.000048 -0.593516 -0.593516 0.000059 0.804823 32271.dat
1 0 -143.868600 -66.481730 -111.484600 1.000000 0.000001 -0.000082 0.000001 0.999968 0.008074 0.000082 -0.008074 0.999968 2780.dat
1 0 -143.871700 -90.224380 -79.292660 1.000000 0.000001 -0.000082 0.000001 0.999968 0.008074 0.000082 -0.008074 0.999968 2780.dat
1 15 -153.866100 -42.747830 -143.682800 -1.000000 0.000049 -0.000050 -0.000011 -0.805029 -0.593237 -0.000069 -0.593237 0.805029 95648.dat
1 0 -143.867100 -54.612430 -127.581600 1.000000 0.000001 -0.000082 0.000001 0.999968 0.008074 0.000082 -0.008074 0.999968 2780.dat
1 100167 -143.866600 -42.752820 -143.685900 1.000000 -0.000049 -0.000050 0.000011 0.805027 -0.593239 0.000069 0.593239 0.805027 32062.dat
1 0 -153.873200 -110.164400 -69.155330 0.000007 1.000000 -0.000005 -0.804498 0.000004 -0.593956 -0.593956 0.000008 0.804498 2780.dat
1 0 -153.876200 -133.922700 -36.975480 0.000007 1.000000 -0.000005 -0.804498 0.000004 -0.593956 -0.593956 0.000008 0.804498 2780.dat
1 71 -82.874950 -133.999100 -47.123300 1.000000 0.000001 0.000000 0.000001 1.000000 0.000000 0.000000 0.000000 1.000000 32073.dat
1 1 -123.874800 -113.998900 -47.123980 1.000000 0.000000 -0.000060 0.000001 1.000000 0.000000 0.000060 0.000000 1.000000 43093.dat
1 0 -113.874900 -133.999100 -47.123300 -0.000060 0.000000 -1.000000 0.000000 1.000000 -0.000001 1.000000 0.000000 -0.000060 32498.dat
1 100167 -123.874800 -153.998400 -47.123920 1.000000 -0.000032 -0.000060 0.000034 1.000000 0.000000 0.000060 0.000000 1.000000 32062.dat
1 71 -153.873100 -118.209400 -75.094940 1.000000 -0.000007 0.000002 0.000008 0.804498 -0.593956 0.000002 0.593956 0.804498 87082.dat
1 321 -193.876100 -65.727560 -11.493840 -1.000000 -0.000101 0.000126 -0.000007 0.804497 0.593957 -0.000161 0.593957 -0.804497 64392.dat
1 0 -173.875300 -87.756950 -15.324810 0.000126 0.000073 1.000000 0.593957 0.804497 -0.000133 -0.804497 0.593957 0.000058 2780.dat
1 0 -173.873300 -103.846900 -27.203940 0.000126 0.000073 1.000000 0.593957 0.804497 -0.000133 -0.804497 0.593957 0.000058 2780.dat
1 321 -173.877100 -141.982400 -42.929140 1.000000 0.000126 0.000009 -0.000082 0.593957 0.804497 0.000096 -0.804497 0.593957 64391.dat
0 STEP
1 0 157.125100 -273.999900 -17.125300 0.000000 0.000000 1.000000 0.000000 1.000000 0.000000 -1.000000 0.000000 0.000000 4459.dat
1 232 157.125100 -333.999900 -7.125300 -1.000000 0.000000 0.000000 0.000000 0.000000 1.000000 0.000000 1.000000 0.000000 32526.dat
1 0 157.125100 -313.999900 -17.125300 0.000000 0.000000 1.000000 0.000000 1.000000 0.000000 -1.000000 0.000000 0.000000 4459.dat
1 0 -82.874880 -273.999900 -17.125060 0.000000 0.000000 1.000000 0.000000 1.000000 0.000000 -1.000000 0.000000 0.000000 4459.dat
1 232 -82.874880 -333.999900 -7.125060 1.000000 0.000000 0.000000 0.000000 0.000000 1.000000 0.000000 -1.000000 0.000000 32526.dat
1 0 -82.874920 -313.999900 -17.125040 0.000000 0.000000 1.000000 0.000000 1.000000 0.000000 -1.000000 0.000000 0.000000 4459.dat
1 16 37.124100 -273.937300 -17.125560 1.000000 0.000000 0.000000 0.000000 0.000000 -1.000000 0.000000 1.000000 0.000000 will ai copy 2
1 321 -102.875500 -323.312600 -53.312760 1.000000 0.000000 0.000000 0.000000 0.387516 -0.921863 0.000000 0.921863 0.387516 11946.dat
1 1 -92.875400 -333.999500 -27.125180 -1.000000 0.000000 0.000000 0.000000 -0.921863 0.387516 0.000000 0.387516 0.921863 43093.dat
1 15 -102.875400 -333.999500 -27.125180 -1.000000 0.000000 0.000000 0.000000 -0.921863 0.387516 0.000000 0.387516 0.921863 6536.dat
1 0 -102.875400 -356.311900 -28.593480 0.000000 0.000000 1.000000 -0.387516 0.921863 0.000000 -0.921863 -0.387516 0.000000 4459.dat
1 321 177.125100 -323.313000 -53.312870 1.000000 0.000000 0.000000 0.000000 0.387516 -0.921863 0.000000 0.921863 0.387516 11947.dat
1 1 167.125000 -333.999900 -27.125290 1.000000 0.000000 0.000000 0.000000 -0.921863 -0.387516 0.000000 0.387516 -0.921863 43093.dat
1 15 177.125000 -333.999900 -27.125290 -1.000000 0.000000 0.000000 0.000000 -0.921863 0.387516 0.000000 0.387516 0.921863 6536.dat
1 0 177.125000 -356.312300 -28.593600 0.000000 0.000000 -1.000000 0.387516 0.921863 0.000000 0.921863 -0.387516 0.000000 4459.dat
1 0 -2.874920 -253.999900 2.874710 0.000000 0.000000 1.000000 0.000000 1.000000 0.000000 -1.000000 0.000000 0.000000 4459.dat
1 0 77.125060 -253.999900 2.874740 0.000000 0.000000 1.000000 0.000000 1.000000 0.000000 -1.000000 0.000000 0.000000 4459.dat
1 0 117.125100 -253.999900 2.874700 0.000000 0.000000 1.000000 0.000000 1.000000 0.000000 -1.000000 0.000000 0.000000 4459.dat
1 0 -42.874940 -253.999800 2.874910 0.000000 0.000000 1.000000 0.000000 1.000000 0.000000 -1.000000 0.000000 0.000000 4459.dat
1 232 37.125110 -253.999900 12.874710 0.000000 0.000000 1.000000 -1.000000 0.000000 0.000000 0.000000 -1.000000 0.000000 40490.dat
1 462 57.125030 -193.999900 -7.125240 1.000000 0.000000 0.000000 0.000000 0.000000 -1.000000 0.000000 1.000000 0.000000 32140.dat
1 462 17.125080 -193.999900 -7.125260 -1.000000 0.000000 0.000000 0.000000 0.000000 -1.000000 0.000000 -1.000000 0.000000 32140.dat
1 0 37.125030 -183.999900 -27.125250 0.000000 0.000000 1.000000 -1.000000 0.000000 0.000000 0.000000 -1.000000 0.000000 4459.dat
1 0 37.125040 -193.999900 -27.125250 0.000000 1.000000 0.000000 0.000000 0.000000 -1.000000 -1.000000 0.000000 0.000000 32184.dat
1 15 57.125060 -193.999900 -27.125240 0.000001 0.000000 1.000000 0.000000 1.000000 0.000000 -1.000000 0.000000 0.000001 6587.dat
1 15 17.125020 -193.999900 -27.125250 0.000000 0.000000 1.000002 0.000000 1.000003 0.000000 -1.000000 0.000000 0.000000 6587.dat
1 4 37.125060 -193.999900 -47.125240 0.000000 0.000000 1.000000 1.000000 0.000000 0.000000 0.000000 1.000000 0.000000 32523.dat
0 STEP
1 0 37.125040 65.999780 -147.125100 0.000000 0.000000 -1.000000 1.000000 0.000000 0.000000 0.000000 -1.000000 0.000000 2391.dat
1 41 37.125050 125.999800 -207.125100 1.000000 0.000000 0.000000 0.000000 0.000000 -1.000000 0.000000 1.000000 0.000000 71709.dat
1 0 -62.874980 145.999600 -127.125100 0.000000 -1.000000 0.000000 0.000000 0.000000 -1.000000 1.000000 0.000000 0.000000 32523.dat
1 0 137.125000 145.999700 -127.125000 0.000000 -1.000000 0.000000 0.000000 0.000000 -1.000000 1.000000 0.000000 0.000000 32523.dat
1 321 117.125000 -174.000000 -87.125200 0.000000 0.000000 1.000000 1.000000 0.000000 0.000000 0.000000 1.000000 0.000000 64391.dat
1 321 -42.875190 -173.999800 -87.125190 0.000000 0.000000 -1.000000 -1.000000 0.000000 0.000000 0.000000 1.000000 0.000000 64683.dat
0 NOFILE
0 FILE Will AI Copy 2
0 Will AI Copy 2
0 Name:  Will AI Copy 2
0 Author:  
0 CustomBrick
0 FlexibleBrickControlPointUnitLength -1
0 FlexibleBrickLockedControlPoint 
0 NumOfBricks:  4
1 0 -10.000000 -34.000000 -69.937500 1.000000 0.000000 0.000000 0.000000 1.000000 0.000000 0.000000 0.000000 1.000000 m3cdfa373_202518_104112.dat
1 71 -10.000000 0.000000 30.062500 1.000000 0.000000 0.000000 0.000000 1.000000 0.000000 0.000000 0.000000 1.000000 m3cdfa373_202518_103128.dat
1 0 0.000000 0.025000 19.812500 1.000000 0.000000 0.000000 0.000000 1.000000 0.000000 0.000000 0.000000 1.000000 m3cdfa373_202518_105158.dat
1 71 0.000000 0.000000 20.062500 1.000000 0.000000 0.000000 0.000000 1.000000 0.000000 0.000000 0.000000 1.000000 m3cdfa373_202518_105223.dat
0 NOFILE
